<?xml version="1.0" encoding="UTF-8"?>
<svg id="Calque_1" xmlns="http://www.w3.org/2000/svg" version="1.1" viewBox="0 0 93.84 93.84">
  <!-- Generator: Adobe Illustrator 29.1.0, SVG Export Plug-In . SVG Version: 2.1.0 Build 142)  -->
  <defs>
    <style>
      .st0 {
        fill: #2f2769;
      }

      .st1 {
        fill: #fff;
      }

      .st2 {
        fill: #ec6963;
      }
    </style>
  </defs>
  <g>
    <path class="st2" d="M-90.25-49.81l7.27,8.87h3.1l-9.34-11.4c-.38.82-.73,1.67-1.02,2.53Z"/>
    <path class="st2" d="M-87.78-55.05l11.56,14.11h3.1l-13.26-16.19c-.5.67-.96,1.36-1.4,2.07Z"/>
    <path class="st2" d="M-84.54-59.35l15.09,18.41h3.1l-16.48-20.11c-.59.54-1.16,1.11-1.71,1.7Z"/>
    <path class="st2" d="M-80.64-62.85l17.95,21.91h3.1l-19.05-23.25c-.69.42-1.35.86-2,1.34Z"/>
    <path class="st2" d="M-76.09-65.56l20.17,24.62h3.1l-20.96-25.58c-.79.28-1.56.6-2.31.96Z"/>
    <path class="st2" d="M-70.83-67.4l21.68,26.46h2.71c.13,0,.26,0,.38,0l-22.08-26.95c-.91.12-1.81.29-2.69.5Z"/>
    <path class="st2" d="M-64.53-68.13s-.09,0-.13,0l22.06,26.92c.91-.13,1.8-.3,2.67-.52l-21.64-26.41h-2.97Z"/>
    <path class="st2" d="M-57.9-68.13l20.9,25.51c.78-.29,1.55-.62,2.3-.97l-20.1-24.53h-3.1Z"/>
    <path class="st2" d="M-51.13-68.13l18.97,23.15c.27-.17.54-.34.8-.51.4-.27.8-.55,1.19-.84l-17.86-21.79h-3.1Z"/>
    <path class="st2" d="M-44.36-68.13l16.37,19.98c.59-.54,1.16-1.12,1.7-1.71l-14.97-18.27h-3.1Z"/>
    <path class="st2" d="M-37.59-68.13l13.13,16.02c.49-.67.95-1.37,1.38-2.09l-11.41-13.93h-3.1Z"/>
    <path class="st2" d="M-30.83-68.13l9.17,11.2c.38-.83.71-1.68,1-2.55l-7.08-8.64h-3.1Z"/>
    <path class="st2" d="M-20.96-68.13h-3.1l4.31,5.25c.21-1.06.35-2.15.43-3.25l-1.64-2Z"/>
    <path class="st2" d="M-89.75-40.94h3.1l-4.51-5.51c-.22,1.05-.37,2.12-.47,3.21l1.88,2.3Z"/>
  </g>
  <path class="st2" d="M84.15-39.29h-46.34c-2.72,0-5.41-.39-8-1.15-2.7-.8-5.25-2-7.6-3.56h0c-7.85-5.24-12.53-13.99-12.53-23.41v-.75h46.34c2.72,0,5.41.39,8,1.15,11.85,3.51,20.13,14.6,20.13,26.97v.75ZM23.05-45.25c2.22,1.48,4.64,2.62,7.19,3.37,2.45.72,5,1.09,7.57,1.09h44.83c-.33-11.41-8.07-21.53-19.05-24.78-2.45-.73-5-1.09-7.57-1.09H11.19c.24,8.63,4.63,16.59,11.86,21.41h0Z"/>
  <g>
    <rect class="st1" x="-90.52" y="43.1" width="44.03" height="7.65" rx="-1.23" ry="-1.23"/>
    <circle class="st1" cx="-36.44" cy="46.92" r="3.82"/>
    <circle class="st0" cx="-23.46" cy="46.92" r="3.82"/>
  </g>
</svg>