<?xml version="1.0" encoding="UTF-8"?>
<svg id="Calque_1" xmlns="http://www.w3.org/2000/svg" version="1.1" viewBox="0 0 354.33 524.41">
  <!-- Generator: Adobe Illustrator 29.2.1, SVG Export Plug-In . SVG Version: 2.1.0 Build 116)  -->
  <defs>
    <style>
      .st0 {
        fill: #fff;
      }
    </style>
  </defs>
  <path class="st0" d="M56.43,112.58c0,27.26,18.17,50.28,43.08,57.64,5.42,1.6,11.16,2.47,17.11,2.47h100.23c0-20.87-10.65-39.25-26.82-50.03-4.95-3.3-10.42-5.88-16.26-7.61-5.42-1.6-11.16-2.47-17.11-2.47H56.43Z"/>
  <path class="st0" d="M104.8,237.19h50.72c33.94,0,61.46-27.48,61.46-61.37h-77.87l-34.31,61.37Z"/>
  <path class="st0" d="M99.24,215.82c0-11.8-9.58-21.37-21.4-21.37s-21.4,9.57-21.4,21.37,9.58,21.37,21.4,21.37,21.4-9.57,21.4-21.37Z"/>
  <path class="st0" d="M64.14,112.35l-7.14-8.7c-.35,2.49-.55,5.04-.6,7.62l.89,1.08h6.85Z"/>
  <path class="st0" d="M79.11,112.35l-18.46-22.5c-.76,1.93-1.43,3.9-1.99,5.92l13.6,16.58h6.85Z"/>
  <path class="st0" d="M94.09,112.35l-27.63-33.68c-1.03,1.57-1.99,3.18-2.88,4.84l23.66,28.84h6.85Z"/>
  <path class="st0" d="M109.07,112.35l-35.19-42.88c-1.25,1.28-2.45,2.6-3.58,3.98l31.92,38.9h6.85Z"/>
  <path class="st0" d="M124.05,112.35l-41.32-50.36c-1.45,1.01-2.86,2.08-4.22,3.21l38.69,47.15h6.85Z"/>
  <path class="st0" d="M134.24,112.35l1.94-3.47-43.21-52.66c-1.66.74-3.29,1.54-4.87,2.41l44.07,53.71h2.07Z"/>
  <path class="st0" d="M142.25,98.02l-37.46-45.65c-1.91.41-3.79.91-5.63,1.49l40.31,49.12,2.78-4.97Z"/>
  <path class="st0" d="M148.32,87.17l-29.7-36.19h-.79c-1.97,0-3.91.1-5.83.28l33.54,40.87,2.78-4.97Z"/>
  <polygon class="st0" points="154.39 76.31 133.6 50.98 126.75 50.98 151.61 81.28 154.39 76.31"/>
  <polygon class="st0" points="160.46 65.45 148.58 50.98 141.72 50.98 157.68 70.42 160.46 65.45"/>
  <polygon class="st0" points="166.52 54.6 163.55 50.98 156.7 50.98 163.75 59.56 166.52 54.6"/>
  <path class="st0" d="M187.48,92.17c2.46.99,5.15,1.55,7.97,1.55.05,0,.1,0,.15,0l-21.1-25.72c-.29,1.41-.45,2.86-.45,4.35,0,1.34.14,2.64.37,3.91l13.06,15.92Z"/>
  <path class="st0" d="M207.52,89.99l-27.02-32.93c-1.3,1.26-2.42,2.7-3.36,4.25l25.54,31.12c1.73-.62,3.35-1.43,4.84-2.45Z"/>
  <path class="st0" d="M215.05,80.92l-24.16-29.44c-1.87.41-3.64,1.05-5.29,1.91l26.53,32.33c1.17-1.46,2.15-3.07,2.91-4.8Z"/>
  <path class="st0" d="M216.85,72.35c0-4.42-1.34-8.52-3.64-11.93l-2.48-3.02c-3.13-3.19-7.26-5.38-11.88-6.12l17.96,21.89c.01-.27.04-.54.04-.81Z"/>
  <rect class="st0" x="56.91" y="282.11" width="21.19" height="101.84"/>
  <path class="st0" d="M169.54,355.11c0-6.84-2.03-12.62-6.08-17.36-4.06-4.74-10.19-8.43-18.39-11.07l-19.55-6.29c-3.1-1-5.42-2.39-6.97-4.17-1.55-1.78-2.32-3.85-2.32-6.22,0-2.18.59-4.12,1.78-5.81,1.18-1.68,2.87-2.98,5.06-3.9,2.19-.91,4.69-1.37,7.52-1.37,4.92,0,9.3,1.35,13.12,4.03,3.83,2.69,6.7,6.4,8.61,11.14l17.23-7.79c-1.92-5.38-4.76-9.98-8.54-13.81-3.78-3.83-8.27-6.79-13.47-8.88-5.2-2.1-10.85-3.15-16.95-3.15-6.93,0-13.05,1.28-18.38,3.83-5.33,2.55-9.48,6.11-12.44,10.66-2.96,4.56-4.44,9.84-4.44,15.85,0,6.83,2.05,12.69,6.15,17.57,4.1,4.87,10.21,8.63,18.32,11.28l19.96,6.56c3.1,1,5.38,2.35,6.83,4.03,1.46,1.68,2.19,3.71,2.19,6.08,0,2.18-.59,4.08-1.78,5.67-1.19,1.59-2.83,2.85-4.92,3.76-2.1.91-4.61,1.37-7.52,1.37-5.47,0-10.46-1.6-14.97-4.79-4.51-3.19-8.04-7.56-10.59-13.12l-17.36,7.79c2,5.83,5.03,10.89,9.09,15.17,4.05,4.29,8.89,7.59,14.49,9.91,5.6,2.32,11.6,3.48,17.98,3.48,7.2,0,13.51-1.3,18.93-3.89,5.42-2.6,9.68-6.2,12.78-10.8,3.1-4.6,4.65-9.86,4.65-15.79Z"/>
  <rect class="st0" x="184.58" y="282.11" width="21.19" height="101.84"/>
  <path class="st0" d="M279.79,381.69c5.42-2.6,9.68-6.2,12.78-10.8,3.1-4.6,4.65-9.86,4.65-15.79,0-6.84-2.03-12.62-6.08-17.36-4.06-4.74-10.19-8.43-18.39-11.07l-19.55-6.29c-3.1-1-5.42-2.39-6.97-4.17-1.55-1.78-2.32-3.85-2.32-6.22,0-2.18.59-4.12,1.78-5.81,1.18-1.68,2.87-2.98,5.05-3.9,2.19-.91,4.69-1.37,7.52-1.37,4.92,0,9.3,1.35,13.12,4.03,3.83,2.69,6.7,6.4,8.61,11.14l17.22-7.79c-1.91-5.38-4.76-9.98-8.54-13.81-3.78-3.83-8.27-6.79-13.47-8.88-5.2-2.1-10.85-3.15-16.95-3.15-6.93,0-13.05,1.28-18.38,3.83-5.33,2.55-9.48,6.11-12.44,10.66-2.96,4.56-4.44,9.84-4.44,15.85,0,6.83,2.05,12.69,6.15,17.57,4.1,4.87,10.21,8.63,18.32,11.28l19.96,6.56c3.1,1,5.38,2.35,6.83,4.03,1.46,1.68,2.19,3.71,2.19,6.08,0,2.18-.59,4.08-1.78,5.67-1.19,1.59-2.83,2.85-4.92,3.76-2.1.91-4.61,1.37-7.52,1.37-5.47,0-10.46-1.6-14.97-4.79-4.51-3.19-8.04-7.56-10.59-13.12l-17.36,7.79c2,5.83,5.03,10.89,9.09,15.17,4.05,4.29,8.89,7.59,14.49,9.91,5.6,2.32,11.6,3.48,17.98,3.48,7.2,0,13.51-1.3,18.93-3.89Z"/>
  <rect class="st0" x="56.72" y="405.42" width="3.56" height="22.45"/>
  <path class="st0" d="M148.85,427.11c1.26.75,2.7,1.13,4.33,1.13,1.1,0,2.12-.18,3.06-.53.94-.35,1.74-.83,2.41-1.45.67-.61,1.17-1.3,1.49-2.07l-2.77-1.36c-.4.7-.95,1.28-1.64,1.72-.69.44-1.53.66-2.52.66s-1.82-.23-2.58-.69c-.75-.46-1.34-1.11-1.75-1.93-.28-.57-.44-1.2-.48-1.9h12.13c.06-.24.1-.5.12-.78.02-.28.03-.55.03-.81,0-1.06-.18-2.07-.53-3.01-.35-.94-.86-1.78-1.52-2.52-.66-.73-1.48-1.31-2.44-1.73-.96-.42-2.06-.63-3.28-.63-1.53,0-2.89.37-4.1,1.1-1.2.73-2.16,1.73-2.88,3-.71,1.27-1.07,2.72-1.07,4.37s.35,3.06,1.05,4.36c.7,1.3,1.68,2.32,2.94,3.07ZM148.86,416.68c.38-.83.92-1.48,1.63-1.93.7-.45,1.51-.68,2.41-.68s1.69.23,2.37.68c.67.45,1.18,1.07,1.51,1.84.19.43.28.9.3,1.4h-8.59c.08-.48.2-.91.38-1.31Z"/>
  <path class="st0" d="M166.58,427.41c.92.55,2,.83,3.23.83s2.22-.27,3.1-.81c.65-.4,1.16-.92,1.54-1.57v2.02h3.22v-16.31h-3.38v9.61c0,.78-.16,1.47-.47,2.05-.31.58-.74,1.04-1.28,1.36-.54.32-1.17.48-1.9.48s-1.33-.16-1.87-.47c-.54-.31-.96-.75-1.27-1.31-.3-.56-.45-1.22-.45-1.96v-9.77h-3.41v10.07c0,1.31.26,2.46.77,3.45.51.99,1.23,1.77,2.15,2.32Z"/>
  <path class="st0" d="M185.06,418.47c0-1.28.35-2.27,1.04-2.97.69-.69,1.6-1.04,2.73-1.04h1.42v-3.1h-.99c-1.13,0-2.09.24-2.89.71-.61.36-1.09.89-1.45,1.59v-2.09h-3.26v16.31h3.41v-9.4Z"/>
  <path class="st0" d="M97,430.91c.67-1.12,1.01-2.38,1.01-3.78v-15.55h-3.22v2.1c-.54-.7-1.19-1.25-1.94-1.67-.97-.53-2.09-.8-3.33-.8-1.53,0-2.88.35-4.07,1.05-1.19.7-2.12,1.66-2.82,2.86-.69,1.2-1.04,2.58-1.04,4.13s.35,2.9,1.04,4.13c.69,1.23,1.64,2.19,2.85,2.89,1.21.7,2.56,1.05,4.07,1.05,1.25,0,2.37-.27,3.36-.81.68-.37,1.25-.87,1.73-1.48v2.08c0,.88-.2,1.64-.6,2.28s-.94,1.11-1.63,1.45c-.68.33-1.46.5-2.32.5-1.11,0-2.04-.25-2.79-.75-.75-.5-1.27-1.14-1.55-1.9l-3.13,1.3c.36.9.9,1.69,1.63,2.37.72.67,1.59,1.2,2.59,1.58,1,.38,2.1.57,3.28.57,1.55,0,2.91-.32,4.1-.96,1.19-.64,2.12-1.52,2.79-2.64ZM94.02,421.78c-.41.73-.97,1.32-1.67,1.75-.7.43-1.51.65-2.41.65s-1.75-.22-2.47-.65c-.72-.43-1.29-1.02-1.7-1.76-.41-.74-.62-1.57-.62-2.47s.21-1.78.62-2.52c.41-.73.98-1.32,1.7-1.75.72-.43,1.55-.65,2.47-.65s1.68.22,2.38.65c.7.43,1.27,1.02,1.69,1.76.42.74.63,1.58.63,2.5s-.21,1.75-.62,2.49Z"/>
  <rect class="st0" x="138.13" y="405.42" width="3.41" height="3.92"/>
  <path class="st0" d="M102.4,415.31c-.71,1.27-1.07,2.72-1.07,4.37s.35,3.06,1.05,4.36c.7,1.3,1.68,2.32,2.94,3.07,1.26.75,2.7,1.13,4.33,1.13,1.1,0,2.12-.18,3.06-.53.93-.35,1.74-.83,2.41-1.45.67-.61,1.17-1.3,1.49-2.07l-2.77-1.36c-.4.7-.95,1.28-1.64,1.72-.69.44-1.53.66-2.52.66s-1.82-.23-2.58-.69c-.75-.46-1.34-1.11-1.75-1.93-.28-.57-.44-1.2-.48-1.9h12.13c.06-.24.1-.5.12-.78.02-.28.03-.55.03-.81,0-1.06-.18-2.07-.53-3.01-.35-.94-.86-1.78-1.52-2.52-.66-.73-1.48-1.31-2.44-1.73-.96-.42-2.06-.63-3.28-.63-1.53,0-2.89.37-4.1,1.1-1.21.73-2.17,1.73-2.88,3ZM106.97,414.75c.7-.45,1.51-.68,2.41-.68s1.69.23,2.37.68c.67.45,1.18,1.07,1.51,1.84.19.43.28.9.3,1.4h-8.59c.08-.48.2-.91.38-1.31.38-.83.92-1.48,1.63-1.93Z"/>
  <rect class="st0" x="138.13" y="411.57" width="3.41" height="16.31"/>
  <polygon class="st0" points="114.23 403.62 109.77 403.62 107.57 408.59 110.94 408.59 114.23 403.62"/>
  <path class="st0" d="M74.77,416.17c.3.57.45,1.27.45,2.09v9.61h3.38v-10.52c0-1.21-.26-2.27-.78-3.2-.52-.92-1.25-1.65-2.17-2.17-.92-.52-1.99-.78-3.2-.78s-2.19.27-3.07.8c-.64.39-1.15.9-1.54,1.55v-1.99h-3.26v16.31h3.41v-9.61c0-.8.15-1.5.45-2.08.3-.58.73-1.03,1.28-1.34.55-.31,1.18-.47,1.88-.47s1.33.16,1.88.47c.55.31.98.75,1.28,1.33Z"/>
  <path class="st0" d="M120.47,411.57v16.31h3.41v-9.61c0-.8.15-1.5.45-2.08.3-.58.73-1.03,1.28-1.34.55-.31,1.18-.47,1.88-.47s1.33.16,1.88.47c.55.31.98.75,1.28,1.33.3.57.45,1.27.45,2.09v9.61h3.38v-10.52c0-1.21-.26-2.27-.78-3.2-.52-.92-1.25-1.65-2.17-2.17-.93-.52-1.99-.78-3.2-.78s-2.19.27-3.08.8c-.64.39-1.15.9-1.54,1.55v-1.99h-3.26Z"/>
  <polygon class="st0" points="218.71 448.11 222 443.14 217.54 443.14 215.34 448.11 218.71 448.11"/>
  <rect class="st0" x="239.15" y="451.1" width="3.41" height="16.31"/>
  <path class="st0" d="M232.94,451.59c-.61.36-1.09.89-1.45,1.59v-2.09h-3.26v16.31h3.41v-9.4c0-1.29.35-2.28,1.04-2.97s1.6-1.04,2.73-1.04h1.42v-3.1h-.99c-1.13,0-2.09.24-2.89.71Z"/>
  <path class="st0" d="M222.87,453.1c-.66-.73-1.48-1.31-2.44-1.73-.97-.42-2.06-.63-3.29-.63-1.53,0-2.89.37-4.1,1.1-1.21.73-2.17,1.73-2.88,3-.71,1.27-1.07,2.72-1.07,4.37s.35,3.06,1.05,4.35c.7,1.3,1.68,2.32,2.94,3.07,1.26.75,2.7,1.13,4.33,1.13,1.1,0,2.12-.18,3.06-.53.93-.35,1.74-.83,2.41-1.45.67-.61,1.17-1.3,1.49-2.06l-2.77-1.36c-.4.7-.95,1.28-1.64,1.72-.69.44-1.53.66-2.52.66s-1.82-.23-2.58-.69c-.75-.46-1.34-1.1-1.75-1.93-.28-.56-.44-1.2-.48-1.9h12.13c.06-.24.1-.5.12-.78.02-.28.03-.55.03-.81,0-1.07-.18-2.07-.53-3.01-.35-.94-.86-1.78-1.52-2.52ZM213.11,456.21c.38-.83.92-1.48,1.63-1.93.7-.45,1.51-.68,2.41-.68s1.69.23,2.37.68c.67.45,1.17,1.07,1.51,1.84.19.43.28.9.3,1.4h-8.59c.08-.48.2-.91.38-1.31Z"/>
  <path class="st0" d="M277.04,460.71c0,.78-.16,1.47-.47,2.05-.31.58-.74,1.04-1.28,1.36-.54.32-1.18.48-1.9.48s-1.33-.16-1.87-.47c-.54-.31-.97-.75-1.27-1.31-.3-.56-.45-1.22-.45-1.96v-9.77h-3.41v10.07c0,1.31.26,2.46.77,3.45.51.99,1.23,1.77,2.16,2.32.92.55,2,.83,3.22.83s2.22-.27,3.1-.81c.65-.4,1.16-.92,1.54-1.57v2.02h3.23v-16.31h-3.38v9.62Z"/>
  <path class="st0" d="M299.02,455.62c-.35-.94-.86-1.78-1.52-2.52-.66-.73-1.48-1.31-2.44-1.73-.96-.42-2.06-.63-3.28-.63-1.53,0-2.89.37-4.1,1.1-1.21.73-2.17,1.73-2.88,3-.71,1.27-1.07,2.72-1.07,4.37s.35,3.06,1.05,4.35c.7,1.3,1.68,2.32,2.94,3.07,1.26.75,2.7,1.13,4.33,1.13,1.1,0,2.12-.18,3.06-.53.93-.35,1.74-.83,2.41-1.45.67-.61,1.17-1.3,1.49-2.06l-2.77-1.36c-.4.7-.95,1.28-1.64,1.72-.69.44-1.53.66-2.52.66s-1.82-.23-2.58-.69c-.75-.46-1.34-1.1-1.75-1.93-.28-.56-.44-1.2-.48-1.9h12.13c.06-.24.1-.5.12-.78.02-.28.03-.55.03-.81,0-1.07-.18-2.07-.53-3.01ZM287.74,456.21c.38-.83.92-1.48,1.63-1.93.7-.45,1.51-.68,2.41-.68s1.69.23,2.37.68c.67.45,1.17,1.07,1.51,1.84.19.43.28.9.3,1.4h-8.59c.08-.48.2-.91.38-1.31Z"/>
  <path class="st0" d="M203.11,451.52c-.91-.52-1.93-.78-3.06-.78-1.29,0-2.43.32-3.42.96-.69.45-1.25,1.06-1.69,1.82-.38-.69-.9-1.27-1.6-1.75-1.02-.69-2.17-1.04-3.48-1.04-1.17,0-2.2.28-3.1.84-.62.38-1.09.9-1.45,1.54v-2.02h-3.26v16.31h3.41v-9.61c0-.8.15-1.5.44-2.08.29-.58.7-1.03,1.22-1.34.52-.31,1.12-.47,1.81-.47s1.31.16,1.82.47c.51.31.91.75,1.21,1.33.29.57.44,1.27.44,2.1v9.61h3.38v-9.61c0-.8.15-1.5.45-2.08.3-.58.71-1.03,1.24-1.34.52-.31,1.12-.47,1.81-.47s1.28.16,1.79.47c.51.31.91.75,1.21,1.33s.44,1.27.44,2.1v9.61h3.41v-10.55c0-1.19-.27-2.24-.81-3.16-.54-.92-1.27-1.65-2.18-2.17Z"/>
  <rect class="st0" x="239.15" y="444.95" width="3.41" height="3.92"/>
  <path class="st0" d="M259.52,453.19c-.54-.69-1.21-1.25-2.02-1.67-1.01-.52-2.16-.78-3.47-.78-1.55,0-2.93.37-4.16,1.12-1.23.74-2.2,1.76-2.92,3.04-.72,1.29-1.09,2.73-1.09,4.34s.36,3.05,1.07,4.34c.71,1.29,1.69,2.31,2.92,3.06,1.24.75,2.64,1.13,4.21,1.13,1.25,0,2.39-.26,3.44-.78.75-.37,1.37-.87,1.87-1.48v7.93h3.38v-22.33h-3.23v2.1ZM258.72,461.99c-.43.81-1.02,1.45-1.78,1.91-.75.46-1.6.69-2.55.69s-1.82-.23-2.58-.69c-.75-.46-1.34-1.1-1.76-1.91-.42-.81-.63-1.73-.63-2.76s.21-1.94.63-2.74,1.01-1.44,1.78-1.9c.76-.46,1.62-.69,2.56-.69s1.79.23,2.55.69c.75.46,1.35,1.09,1.78,1.9.43.8.65,1.72.65,2.74s-.22,1.94-.65,2.76Z"/>
  <path class="st0" d="M174.71,460.71c0,.78-.16,1.47-.47,2.05-.31.58-.74,1.04-1.28,1.36-.54.32-1.18.48-1.9.48s-1.33-.16-1.87-.47c-.54-.31-.96-.75-1.27-1.31-.3-.56-.45-1.22-.45-1.96v-9.77h-3.41v10.07c0,1.31.26,2.46.77,3.45.51.99,1.23,1.77,2.16,2.32.92.55,2,.83,3.22.83s2.22-.27,3.1-.81c.65-.4,1.16-.92,1.54-1.57v2.02h3.23v-16.31h-3.38v9.62Z"/>
  <path class="st0" d="M157.8,451.52c-.92-.52-1.99-.78-3.19-.78s-2.19.27-3.07.8c-.64.39-1.15.9-1.54,1.55v-1.99h-3.26v16.31h3.41v-9.61c0-.8.15-1.5.45-2.08.3-.58.73-1.03,1.28-1.34.55-.31,1.18-.47,1.88-.47s1.33.16,1.88.47c.55.31.98.75,1.28,1.33.3.57.45,1.27.45,2.1v9.61h3.38v-10.52c0-1.21-.26-2.27-.78-3.2-.52-.92-1.25-1.65-2.17-2.17Z"/>
  <path class="st0" d="M65.9,455.55l-3.92-1.24c-.95-.28-1.65-.7-2.11-1.27-.46-.56-.69-1.21-.69-1.93,0-.62.16-1.17.47-1.64.31-.47.75-.83,1.31-1.09.56-.25,1.22-.38,1.96-.38,1.23,0,2.31.32,3.24.96.93.64,1.62,1.56,2.07,2.74l2.95-1.3c-.36-1.08-.94-2.04-1.73-2.86-.79-.82-1.74-1.47-2.85-1.94-1.1-.47-2.33-.71-3.68-.71s-2.66.27-3.75.81c-1.09.54-1.95,1.29-2.58,2.25-.62.95-.93,2.06-.93,3.33,0,1.45.44,2.71,1.33,3.78.88,1.07,2.17,1.87,3.86,2.4l4.22,1.33c.9.28,1.59.66,2.05,1.15.46.48.69,1.14.69,1.96,0,.6-.17,1.14-.5,1.6-.33.46-.8.82-1.4,1.07-.6.25-1.31.38-2.11.38-1.37,0-2.57-.37-3.62-1.11-1.04-.74-1.84-1.81-2.38-3.2l-3.01,1.27c.4,1.21,1.03,2.27,1.87,3.2s1.87,1.65,3.07,2.18c1.21.53,2.51.8,3.92.8,1.51,0,2.83-.28,3.98-.83,1.15-.55,2.04-1.31,2.7-2.28.65-.96.98-2.07.98-3.32,0-1.51-.45-2.77-1.36-3.78-.9-1.01-2.25-1.79-4.04-2.34Z"/>
  <path class="st0" d="M103.13,451.84c-.92-.52-1.99-.78-3.2-.78s-2.19.27-3.07.8c-.64.39-1.15.9-1.54,1.55v-1.99h-3.25v16.31h3.41v-9.61c0-.8.15-1.5.45-2.08.3-.58.73-1.03,1.28-1.34.55-.31,1.18-.47,1.88-.47s1.33.16,1.88.47c.55.31.98.75,1.28,1.33.3.57.45,1.27.45,2.1v9.61h3.38v-10.52c0-1.21-.26-2.27-.78-3.2-.52-.92-1.25-1.65-2.17-2.17Z"/>
  <path class="st0" d="M84.94,451.78c-.99-.48-2.13-.72-3.42-.72-1.03,0-1.99.17-2.91.51-.91.34-1.71.82-2.4,1.43-.68.61-1.18,1.32-1.48,2.12l2.83,1.42c.32-.74.82-1.35,1.49-1.82.67-.47,1.46-.71,2.37-.71.98,0,1.77.26,2.37.77.59.51.89,1.17.89,1.97v.62l-5.18.86c-1.25.2-2.28.54-3.1,1.02-.82.48-1.43,1.08-1.82,1.78-.39.7-.59,1.5-.59,2.38,0,.95.23,1.76.69,2.46.46.69,1.11,1.24,1.94,1.63.83.39,1.8.59,2.91.59.92,0,1.76-.13,2.52-.39.75-.26,1.43-.63,2.02-1.11.28-.23.53-.48.77-.75v1.9h3.26v-10.97c0-1.12-.28-2.11-.83-2.97-.55-.85-1.33-1.52-2.32-2.01ZM84.11,463.19c-.38.67-.92,1.21-1.61,1.61-.69.4-1.5.6-2.43.6-.74,0-1.35-.2-1.82-.59-.47-.39-.71-.9-.71-1.52s.21-1.17.63-1.58,1.08-.7,1.99-.86l4.52-.79v.88c0,.82-.19,1.57-.57,2.25Z"/>
  <path class="st0" d="M117.5,464.89c-.64,0-1.17-.11-1.57-.32-.4-.21-.69-.51-.87-.9-.18-.39-.27-.87-.27-1.43v-7.75h3.71v-3.07h-3.71v-3.74h-3.41v1.27c0,.76-.21,1.37-.63,1.81-.42.44-1.01.66-1.78.66h-.45v3.07h2.86v7.9c0,1.75.47,3.11,1.42,4.07.94.96,2.27,1.45,3.98,1.45.26,0,.56-.02.9-.06.34-.04.65-.08.93-.12v-2.92c-.18.02-.37.04-.57.06-.2.02-.38.03-.54.03Z"/>
  <polygon class="st0" points="127.21 448.43 130.58 448.43 133.87 443.46 129.41 443.46 127.21 448.43"/>
  <path class="st0" d="M134.74,453.42c-.66-.73-1.48-1.31-2.44-1.73-.96-.42-2.06-.63-3.29-.63-1.53,0-2.89.37-4.1,1.1-1.21.73-2.16,1.73-2.88,3-.71,1.27-1.07,2.72-1.07,4.37s.35,3.06,1.05,4.35c.7,1.3,1.68,2.32,2.94,3.08,1.26.75,2.7,1.13,4.33,1.13,1.1,0,2.12-.18,3.06-.53.93-.35,1.74-.83,2.41-1.45.67-.61,1.17-1.3,1.49-2.07l-2.77-1.36c-.4.7-.95,1.28-1.64,1.72-.69.44-1.53.66-2.52.66s-1.82-.23-2.58-.69c-.75-.46-1.34-1.1-1.75-1.93-.28-.56-.44-1.2-.48-1.9h12.13c.06-.24.1-.5.12-.78.02-.28.03-.55.03-.81,0-1.07-.18-2.07-.53-3.01-.35-.94-.86-1.78-1.52-2.52ZM124.98,456.53c.38-.83.92-1.48,1.63-1.93.7-.45,1.51-.68,2.41-.68s1.69.23,2.37.68c.67.45,1.18,1.07,1.51,1.84.19.43.28.9.3,1.4h-8.59c.08-.48.2-.91.38-1.31Z"/>
</svg>