<?xml version="1.0" encoding="UTF-8"?>
<svg id="Calque_1" xmlns="http://www.w3.org/2000/svg" xmlns:xlink="http://www.w3.org/1999/xlink" version="1.1" viewBox="0 0 566.93 311.81">
  <!-- Generator: Adobe Illustrator 29.2.1, SVG Export Plug-In . SVG Version: 2.1.0 Build 116)  -->
  <defs>
    <style>
      .st0 {
        fill: #7c50de;
      }

      .st1 {
        fill: url(#Dégradé_sans_nom_188);
      }

      .st2 {
        fill: url(#Dégradé_sans_nom_185);
      }

      .st3 {
        fill: url(#Dégradé_sans_nom_187);
      }

      .st4 {
        fill: url(#Dégradé_sans_nom_184);
      }

      .st5 {
        fill: url(#Dégradé_sans_nom_183);
      }

      .st6 {
        fill: url(#Dégradé_sans_nom_182);
      }

      .st7 {
        fill: url(#Dégradé_sans_nom_181);
      }

      .st8 {
        fill: url(#Dégradé_sans_nom_186);
      }

      .st9 {
        fill: url(#Dégradé_sans_nom_189);
      }

      .st10 {
        fill: url(#Dégradé_sans_nom_18);
      }

      .st11 {
        fill: url(#Dégradé_sans_nom_1811);
      }

      .st12 {
        fill: url(#Dégradé_sans_nom_1812);
      }

      .st13 {
        fill: url(#Dégradé_sans_nom_1810);
      }

      .st14 {
        fill: url(#Dégradé_sans_nom_1817);
      }

      .st15 {
        fill: url(#Dégradé_sans_nom_1815);
      }

      .st16 {
        fill: url(#Dégradé_sans_nom_1816);
      }

      .st17 {
        fill: url(#Dégradé_sans_nom_1813);
      }

      .st18 {
        fill: url(#Dégradé_sans_nom_1814);
      }
    </style>
    <linearGradient id="Dégradé_sans_nom_18" data-name="Dégradé sans nom 18" x1="60" y1="152.47" x2="215.05" y2="152.47" gradientUnits="userSpaceOnUse">
      <stop offset="0" stop-color="#f56960"/>
      <stop offset="0" stop-color="#f56960"/>
      <stop offset=".08" stop-color="#ef6767"/>
      <stop offset=".21" stop-color="#df627d"/>
      <stop offset=".37" stop-color="#c65ba1"/>
      <stop offset=".51" stop-color="#ac54c7"/>
      <stop offset=".62" stop-color="#9d52cd"/>
      <stop offset=".85" stop-color="#8550d9"/>
      <stop offset="1" stop-color="#7c50de"/>
      <stop offset="1" stop-color="#7c50de"/>
    </linearGradient>
    <linearGradient id="Dégradé_sans_nom_181" data-name="Dégradé sans nom 18" y1="216.34" x2="215.05" y2="216.34" xlink:href="#Dégradé_sans_nom_18"/>
    <linearGradient id="Dégradé_sans_nom_182" data-name="Dégradé sans nom 18" y1="225.65" x2="215.05" y2="225.65" xlink:href="#Dégradé_sans_nom_18"/>
    <linearGradient id="Dégradé_sans_nom_183" data-name="Dégradé sans nom 18" y1="117.83" x2="215.05" y2="117.83" xlink:href="#Dégradé_sans_nom_18"/>
    <linearGradient id="Dégradé_sans_nom_184" data-name="Dégradé sans nom 18" y1="110.93" y2="110.93" xlink:href="#Dégradé_sans_nom_18"/>
    <linearGradient id="Dégradé_sans_nom_185" data-name="Dégradé sans nom 18" y1="105.35" x2="215.05" y2="105.35" xlink:href="#Dégradé_sans_nom_18"/>
    <linearGradient id="Dégradé_sans_nom_186" data-name="Dégradé sans nom 18" y1="100.74" x2="215.09" y2="100.74" xlink:href="#Dégradé_sans_nom_18"/>
    <linearGradient id="Dégradé_sans_nom_187" data-name="Dégradé sans nom 18" y1="97" x2="215.05" y2="97" xlink:href="#Dégradé_sans_nom_18"/>
    <linearGradient id="Dégradé_sans_nom_188" data-name="Dégradé sans nom 18" y1="94.12" x2="215.05" y2="94.12" xlink:href="#Dégradé_sans_nom_18"/>
    <linearGradient id="Dégradé_sans_nom_189" data-name="Dégradé sans nom 18" y1="87.52" x2="215.05" y2="87.52" xlink:href="#Dégradé_sans_nom_18"/>
    <linearGradient id="Dégradé_sans_nom_1810" data-name="Dégradé sans nom 18" y1="81.39" x2="215.05" y2="81.39" xlink:href="#Dégradé_sans_nom_18"/>
    <linearGradient id="Dégradé_sans_nom_1811" data-name="Dégradé sans nom 18" y1="75.96" x2="215.05" y2="75.96" xlink:href="#Dégradé_sans_nom_18"/>
    <linearGradient id="Dégradé_sans_nom_1812" data-name="Dégradé sans nom 18" y1="70.53" x2="215.05" y2="70.53" xlink:href="#Dégradé_sans_nom_18"/>
    <linearGradient id="Dégradé_sans_nom_1813" data-name="Dégradé sans nom 18" y1="65.11" x2="215.05" y2="65.11" xlink:href="#Dégradé_sans_nom_18"/>
    <linearGradient id="Dégradé_sans_nom_1814" data-name="Dégradé sans nom 18" y1="90.69" x2="215.05" y2="90.69" xlink:href="#Dégradé_sans_nom_18"/>
    <linearGradient id="Dégradé_sans_nom_1815" data-name="Dégradé sans nom 18" y1="84.59" x2="215.05" y2="84.59" xlink:href="#Dégradé_sans_nom_18"/>
    <linearGradient id="Dégradé_sans_nom_1816" data-name="Dégradé sans nom 18" y1="78.43" x2="215.05" y2="78.43" xlink:href="#Dégradé_sans_nom_18"/>
    <linearGradient id="Dégradé_sans_nom_1817" data-name="Dégradé sans nom 18" y1="72.05" x2="215.05" y2="72.05" xlink:href="#Dégradé_sans_nom_18"/>
  </defs>
  <path class="st10" d="M120.65,122.42h-60.19c0,27.26,18.17,50.28,43.08,57.64,5.42,1.6,11.16,2.47,17.11,2.47h100.23c0-20.87-10.65-39.25-26.82-50.03-4.95-3.3-10.42-5.88-16.26-7.61-5.42-1.6-11.16-2.47-17.11-2.47h-40.04Z"/>
  <path class="st7" d="M143.13,185.65l-34.31,61.37h50.72c33.94,0,61.46-27.48,61.46-61.37h-77.87Z"/>
  <path class="st6" d="M60.46,225.65c0,11.8,9.58,21.37,21.4,21.37s21.4-9.57,21.4-21.37-9.58-21.37-21.4-21.37-21.4,9.57-21.4,21.37"/>
  <path class="st5" d="M60.42,121.1l.89,1.08h6.85l-7.14-8.7c-.35,2.49-.55,5.04-.6,7.62"/>
  <path class="st4" d="M62.69,105.61l13.6,16.58h6.85l-18.46-22.5c-.76,1.93-1.43,3.9-1.99,5.92"/>
  <path class="st2" d="M67.6,93.35l23.66,28.84h6.85l-27.63-33.68c-1.03,1.57-1.99,3.18-2.88,4.84"/>
  <path class="st8" d="M74.32,83.28l31.92,38.9h6.85l-35.19-42.88c-1.25,1.28-2.45,2.6-3.58,3.98"/>
  <path class="st3" d="M82.53,75.03l38.69,47.15h6.85l-41.32-50.36c-1.45,1.01-2.86,2.08-4.22,3.21"/>
  <path class="st1" d="M92.12,68.47l44.07,53.71h2.07l1.94-3.47-43.21-52.66c-1.66.74-3.29,1.54-4.87,2.41"/>
  <path class="st9" d="M103.19,63.7l40.31,49.12,2.78-4.97-37.46-45.65c-1.91.41-3.79.91-5.63,1.49"/>
  <path class="st13" d="M121.86,60.81c-1.97,0-3.91.1-5.83.28l33.54,40.87,2.78-4.97-29.7-36.19h-.79Z"/>
  <polygon class="st11" points="155.64 91.11 158.41 86.15 137.63 60.81 130.77 60.81 155.64 91.11"/>
  <polygon class="st12" points="161.7 80.26 164.48 75.29 152.6 60.81 145.75 60.81 161.7 80.26"/>
  <polygon class="st17" points="167.77 69.4 170.55 64.43 167.58 60.81 160.73 60.81 167.77 69.4"/>
  <path class="st18" d="M178.07,82.19c0,1.34.14,2.64.37,3.91l13.06,15.92c2.46.99,5.15,1.55,7.97,1.55.05,0,.1,0,.15,0l-21.1-25.72c-.29,1.41-.45,2.86-.45,4.35"/>
  <path class="st15" d="M181.17,71.16l25.54,31.12c1.73-.62,3.35-1.43,4.84-2.45l-27.02-32.93c-1.3,1.26-2.42,2.7-3.36,4.25"/>
  <path class="st16" d="M189.63,63.22l26.53,32.33c1.17-1.46,2.15-3.07,2.92-4.8l-24.16-29.44c-1.87.41-3.64,1.05-5.29,1.91"/>
  <path class="st14" d="M220.84,83c.01-.27.04-.54.04-.81,0-4.42-1.34-8.52-3.64-11.93l-2.48-3.02c-3.13-3.19-7.26-5.38-11.88-6.12l17.96,21.89Z"/>
  <g>
    <rect class="st0" x="263.86" y="61.07" width="21.19" height="101.84"/>
    <path class="st0" d="M340.14,164.54c-6.38,0-12.37-1.16-17.98-3.48-5.6-2.33-10.43-5.63-14.49-9.91-4.06-4.28-7.09-9.34-9.09-15.17l17.36-7.79c2.55,5.56,6.08,9.93,10.59,13.12,4.51,3.19,9.5,4.79,14.97,4.79,2.91,0,5.42-.46,7.52-1.37,2.09-.91,3.73-2.17,4.92-3.76,1.18-1.59,1.78-3.49,1.78-5.67,0-2.37-.73-4.4-2.19-6.08-1.46-1.69-3.74-3.03-6.83-4.03l-19.96-6.56c-8.11-2.65-14.22-6.4-18.32-11.28-4.1-4.88-6.15-10.73-6.15-17.57,0-6.01,1.48-11.3,4.44-15.85,2.96-4.56,7.11-8.11,12.44-10.66,5.33-2.55,11.46-3.83,18.38-3.83,6.11,0,11.76,1.05,16.95,3.15,5.2,2.1,9.68,5.06,13.47,8.88,3.78,3.83,6.63,8.43,8.54,13.81l-17.23,7.79c-1.91-4.74-4.78-8.45-8.61-11.14-3.83-2.69-8.2-4.03-13.12-4.03-2.83,0-5.33.46-7.52,1.37-2.18.91-3.87,2.21-5.06,3.9-1.19,1.68-1.78,3.62-1.78,5.81,0,2.37.77,4.44,2.32,6.22,1.55,1.78,3.87,3.17,6.97,4.17l19.55,6.29c8.2,2.64,14.33,6.34,18.39,11.07,4.05,4.74,6.08,10.53,6.08,17.36,0,5.92-1.55,11.19-4.65,15.79-3.1,4.6-7.36,8.2-12.78,10.8-5.42,2.6-11.73,3.89-18.93,3.89"/>
    <rect class="st0" x="391.53" y="61.07" width="21.19" height="101.84"/>
    <path class="st0" d="M467.81,164.54c-6.38,0-12.37-1.16-17.98-3.48-5.6-2.33-10.43-5.63-14.49-9.91-4.06-4.28-7.09-9.34-9.09-15.17l17.36-7.79c2.55,5.56,6.08,9.93,10.59,13.12,4.51,3.19,9.5,4.79,14.97,4.79,2.91,0,5.42-.46,7.52-1.37,2.09-.91,3.73-2.17,4.92-3.76,1.18-1.59,1.78-3.49,1.78-5.67,0-2.37-.73-4.4-2.19-6.08-1.46-1.69-3.74-3.03-6.83-4.03l-19.96-6.56c-8.11-2.65-14.22-6.4-18.32-11.28-4.1-4.88-6.15-10.73-6.15-17.57,0-6.01,1.48-11.3,4.44-15.85,2.96-4.56,7.11-8.11,12.44-10.66,5.33-2.55,11.46-3.83,18.38-3.83,6.11,0,11.76,1.05,16.95,3.15,5.2,2.1,9.68,5.06,13.47,8.88,3.78,3.83,6.63,8.43,8.54,13.81l-17.22,7.79c-1.91-4.74-4.78-8.45-8.61-11.14-3.83-2.69-8.2-4.03-13.12-4.03-2.83,0-5.33.46-7.52,1.37-2.18.91-3.87,2.21-5.05,3.9-1.19,1.68-1.78,3.62-1.78,5.81,0,2.37.77,4.44,2.32,6.22,1.55,1.78,3.87,3.17,6.97,4.17l19.55,6.29c8.2,2.64,14.33,6.34,18.39,11.07,4.05,4.74,6.08,10.53,6.08,17.36,0,5.92-1.55,11.19-4.65,15.79-3.1,4.6-7.36,8.2-12.78,10.8-5.42,2.6-11.73,3.89-18.93,3.89"/>
  </g>
  <g>
    <path class="st0" d="M392.01,206.83v-9.4c0-1.29.35-2.27,1.04-2.97.69-.69,1.6-1.04,2.73-1.04h1.42v-3.11h-.99c-1.13,0-2.09.24-2.89.71-.8.47-1.39,1.24-1.75,2.31l.3.48v-3.29h-3.26v16.31h3.41ZM379.87,206.38c.88-.54,1.52-1.32,1.9-2.32l-.36-.42v3.2h3.22v-16.31h-3.38v9.61c0,.78-.16,1.47-.47,2.05-.31.58-.74,1.04-1.28,1.36-.54.32-1.17.48-1.9.48s-1.33-.15-1.87-.47c-.54-.31-.96-.75-1.27-1.31-.3-.56-.45-1.22-.45-1.96v-9.77h-3.41v10.07c0,1.31.26,2.46.77,3.45.51.99,1.23,1.77,2.15,2.32.92.55,2,.83,3.23.83s2.22-.27,3.1-.81M363.18,206.67c.94-.35,1.74-.83,2.41-1.45.67-.61,1.17-1.3,1.49-2.07l-2.77-1.36c-.4.7-.95,1.28-1.64,1.72-.69.44-1.53.66-2.52.66s-1.82-.23-2.58-.69c-.75-.46-1.34-1.11-1.75-1.93-.41-.82-.57-1.79-.47-2.89-.08-1.18.07-2.2.45-3.03.38-.83.92-1.48,1.63-1.93s1.51-.68,2.41-.68,1.69.23,2.37.68c.67.45,1.18,1.07,1.51,1.84.33.77.4,1.65.2,2.64l1.63-1.24h-11.06v2.71h12.99c.06-.24.1-.5.12-.78.02-.28.03-.55.03-.81,0-1.06-.18-2.07-.53-3.01-.35-.94-.86-1.78-1.52-2.52-.66-.73-1.48-1.31-2.44-1.73-.96-.42-2.06-.63-3.28-.63-1.53,0-2.89.37-4.1,1.1-1.2.73-2.16,1.73-2.88,3-.71,1.26-1.07,2.72-1.07,4.37s.35,3.06,1.05,4.36c.7,1.3,1.68,2.32,2.94,3.07,1.26.75,2.7,1.13,4.33,1.13,1.1,0,2.12-.18,3.06-.53M348.49,184.38h-3.41v3.92h3.41v-3.92ZM348.49,190.53h-3.41v16.31h3.41v-16.31ZM330.83,206.83v-9.61c0-.8.15-1.5.45-2.08.3-.58.73-1.03,1.28-1.34.55-.31,1.18-.47,1.88-.47s1.33.16,1.88.47c.55.31.98.75,1.28,1.33.3.57.45,1.27.45,2.09v9.61h3.38v-10.52c0-1.2-.26-2.27-.78-3.19-.52-.92-1.25-1.65-2.17-2.17-.93-.52-1.99-.78-3.2-.78s-2.19.27-3.08.8c-.88.53-1.53,1.31-1.93,2.34l.39.42v-3.2h-3.26v16.31h3.41ZM317.9,187.54l3.29-4.97h-4.46l-2.2,4.97h3.37ZM319.66,206.67c.93-.35,1.74-.83,2.41-1.45.67-.61,1.17-1.3,1.49-2.07l-2.77-1.36c-.4.7-.95,1.28-1.64,1.72-.69.44-1.53.66-2.52.66s-1.82-.23-2.58-.69c-.75-.46-1.34-1.11-1.75-1.93-.41-.82-.57-1.79-.47-2.89-.08-1.18.07-2.2.45-3.03.38-.83.92-1.48,1.63-1.93.7-.45,1.51-.68,2.41-.68s1.69.23,2.37.68c.67.45,1.18,1.07,1.51,1.84.33.77.4,1.65.2,2.64l1.63-1.24h-11.06v2.71h12.99c.06-.24.1-.5.12-.78.02-.28.03-.55.03-.81,0-1.06-.18-2.07-.53-3.01-.35-.94-.86-1.78-1.52-2.52-.66-.73-1.48-1.31-2.44-1.73-.96-.42-2.06-.63-3.28-.63-1.53,0-2.89.37-4.1,1.1-1.21.73-2.17,1.73-2.88,3-.71,1.26-1.07,2.72-1.07,4.37s.35,3.06,1.05,4.36c.7,1.3,1.68,2.32,2.94,3.07,1.26.75,2.7,1.13,4.33,1.13,1.1,0,2.12-.18,3.06-.53M294.42,202.48c-.72-.43-1.29-1.02-1.7-1.76-.41-.74-.62-1.57-.62-2.47s.21-1.78.62-2.52c.41-.73.98-1.32,1.7-1.75.72-.43,1.55-.65,2.47-.65s1.68.22,2.38.65c.7.43,1.27,1.02,1.69,1.76.42.74.63,1.58.63,2.5s-.21,1.75-.62,2.49c-.41.73-.97,1.32-1.67,1.75-.7.43-1.51.65-2.41.65s-1.75-.22-2.47-.65M301.17,212.5c1.19-.64,2.12-1.52,2.79-2.64.67-1.12,1.01-2.38,1.01-3.78v-15.55h-3.22v3.59l.45-.84c-.62-1.01-1.42-1.77-2.4-2.31-.98-.53-2.09-.8-3.33-.8-1.53,0-2.88.35-4.07,1.05-1.19.7-2.12,1.66-2.82,2.86-.69,1.2-1.04,2.58-1.04,4.13s.35,2.9,1.04,4.13c.69,1.23,1.64,2.19,2.85,2.89,1.21.7,2.56,1.05,4.07,1.05,1.25,0,2.37-.27,3.36-.81.99-.54,1.77-1.34,2.34-2.38l-.6-.69v3.68c0,.88-.2,1.64-.6,2.28-.4.63-.94,1.11-1.63,1.45-.68.33-1.46.5-2.32.5-1.11,0-2.04-.25-2.79-.75-.75-.5-1.27-1.14-1.55-1.9l-3.13,1.3c.36.9.9,1.69,1.63,2.37.72.67,1.59,1.2,2.59,1.58,1,.38,2.1.57,3.28.57,1.55,0,2.91-.32,4.1-.96M274.95,206.83v-9.61c0-.8.15-1.5.45-2.08.3-.58.73-1.03,1.28-1.34.55-.31,1.18-.47,1.88-.47s1.33.16,1.88.47c.55.31.98.75,1.28,1.33.3.57.45,1.27.45,2.09v9.61h3.38v-10.52c0-1.2-.26-2.27-.78-3.19-.52-.92-1.25-1.65-2.17-2.17-.92-.52-1.99-.78-3.2-.78s-2.19.27-3.07.8c-.88.53-1.53,1.31-1.93,2.34l.39.42v-3.2h-3.26v16.31h3.41ZM267.23,184.38h-3.56v22.45h3.56v-22.45Z"/>
    <path class="st0" d="M502.06,246.19c.93-.35,1.74-.83,2.41-1.45.67-.61,1.17-1.3,1.49-2.06l-2.77-1.36c-.4.7-.95,1.28-1.64,1.72-.69.44-1.53.66-2.52.66s-1.82-.23-2.58-.69c-.75-.46-1.34-1.11-1.75-1.93-.41-.82-.57-1.79-.47-2.89-.08-1.19.07-2.19.45-3.03.38-.83.92-1.48,1.63-1.93.7-.45,1.51-.68,2.41-.68s1.69.23,2.37.68c.67.45,1.17,1.07,1.51,1.84.33.77.4,1.65.2,2.64l1.63-1.24h-11.06v2.71h12.99c.06-.24.1-.5.12-.78.02-.28.03-.55.03-.81,0-1.07-.18-2.07-.53-3.01-.35-.94-.86-1.78-1.52-2.52-.66-.73-1.48-1.31-2.44-1.73-.96-.42-2.06-.63-3.28-.63-1.53,0-2.89.37-4.1,1.1-1.21.73-2.17,1.73-2.88,3-.71,1.27-1.07,2.72-1.07,4.37s.35,3.06,1.05,4.36c.7,1.3,1.68,2.32,2.94,3.07,1.26.75,2.7,1.13,4.33,1.13,1.1,0,2.12-.18,3.06-.53M482.6,245.91c.88-.54,1.52-1.32,1.9-2.32l-.36-.42v3.19h3.23v-16.31h-3.38v9.62c0,.78-.16,1.47-.47,2.05-.31.58-.74,1.04-1.28,1.36-.54.32-1.18.48-1.9.48s-1.33-.16-1.87-.47c-.54-.31-.97-.75-1.27-1.31-.3-.56-.45-1.22-.45-1.96v-9.77h-3.41v10.07c0,1.31.26,2.46.77,3.45.51.99,1.23,1.77,2.16,2.32.92.55,2,.83,3.22.83s2.22-.27,3.1-.81M458.78,242.86c-.75-.46-1.34-1.1-1.76-1.91-.42-.81-.63-1.73-.63-2.76s.21-1.94.63-2.74c.42-.8,1.01-1.44,1.78-1.9.76-.46,1.62-.69,2.56-.69s1.79.23,2.55.69c.75.46,1.35,1.1,1.78,1.9.43.8.65,1.72.65,2.74s-.22,1.94-.65,2.76c-.43.81-1.02,1.45-1.78,1.91-.75.46-1.6.69-2.55.69s-1.82-.23-2.58-.69M469.7,252.39v-22.33h-3.23v3.38l.36-.78c-.58-.92-1.38-1.65-2.38-2.17-1.01-.52-2.16-.78-3.47-.78-1.55,0-2.93.37-4.16,1.12-1.23.74-2.2,1.76-2.92,3.04-.72,1.29-1.09,2.73-1.09,4.34s.36,3.05,1.07,4.34c.71,1.29,1.69,2.31,2.92,3.06,1.24.75,2.64,1.13,4.21,1.13,1.25,0,2.39-.26,3.44-.78,1.04-.52,1.85-1.28,2.41-2.26l-.54-.63v9.34h3.38ZM449.51,223.9h-3.41v3.92h3.41v-3.92ZM449.51,230.05h-3.41v16.31h3.41v-16.31ZM438.6,246.36v-9.4c0-1.29.35-2.28,1.04-2.97s1.6-1.04,2.73-1.04h1.42v-3.1h-.99c-1.13,0-2.09.24-2.89.71-.8.47-1.39,1.24-1.75,2.31l.3.48v-3.29h-3.26v16.31h3.41ZM425.67,227.07l3.28-4.97h-4.46l-2.2,4.97h3.38ZM427.43,246.19c.93-.35,1.74-.83,2.41-1.45.67-.61,1.17-1.3,1.49-2.06l-2.77-1.36c-.4.7-.95,1.28-1.64,1.72-.69.44-1.53.66-2.52.66s-1.82-.23-2.58-.69c-.75-.46-1.34-1.11-1.75-1.93-.41-.82-.57-1.79-.47-2.89-.08-1.19.07-2.19.45-3.03.38-.83.92-1.48,1.63-1.93.7-.45,1.51-.68,2.41-.68s1.69.23,2.37.68c.67.45,1.17,1.07,1.51,1.84.33.77.4,1.65.2,2.64l1.63-1.24h-11.06v2.71h12.99c.06-.24.1-.5.12-.78.02-.28.03-.55.03-.81,0-1.07-.18-2.07-.53-3.01-.35-.94-.86-1.78-1.52-2.52-.66-.73-1.48-1.31-2.44-1.73-.97-.42-2.06-.63-3.29-.63-1.53,0-2.89.37-4.1,1.1-1.21.73-2.17,1.73-2.88,3-.71,1.27-1.07,2.72-1.07,4.37s.35,3.06,1.05,4.36c.7,1.3,1.68,2.32,2.94,3.07,1.26.75,2.7,1.13,4.33,1.13,1.1,0,2.12-.18,3.06-.53M392.42,246.36v-9.61c0-.8.15-1.5.44-2.08.29-.58.7-1.03,1.22-1.34.52-.31,1.12-.47,1.81-.47s1.31.16,1.82.47c.51.31.91.75,1.21,1.33.29.57.44,1.27.44,2.1v9.61h3.38v-9.61c0-.8.15-1.5.45-2.08.3-.58.71-1.03,1.24-1.34.52-.31,1.12-.47,1.81-.47s1.28.16,1.79.47c.51.31.91.75,1.21,1.33s.44,1.27.44,2.1v9.61h3.41v-10.55c0-1.19-.27-2.24-.81-3.17-.54-.92-1.27-1.65-2.18-2.17-.91-.52-1.93-.78-3.06-.78-1.29,0-2.43.32-3.42.96-.99.64-1.73,1.62-2.22,2.92l.96-.09c-.34-1.15-1.02-2.07-2.03-2.76s-2.17-1.04-3.48-1.04c-1.17,0-2.2.28-3.1.84-.9.56-1.53,1.4-1.87,2.5l.42.54v-3.53h-3.26v16.31h3.41ZM380.27,245.91c.88-.54,1.52-1.32,1.9-2.32l-.36-.42v3.19h3.23v-16.31h-3.38v9.62c0,.78-.16,1.47-.47,2.05-.31.58-.74,1.04-1.28,1.36-.54.32-1.18.48-1.9.48s-1.33-.16-1.87-.47c-.54-.31-.96-.75-1.27-1.31-.3-.56-.45-1.22-.45-1.96v-9.77h-3.41v10.07c0,1.31.26,2.46.77,3.45.51.99,1.23,1.77,2.16,2.32.92.55,2,.83,3.22.83s2.22-.27,3.1-.81M357.1,246.36v-9.61c0-.8.15-1.5.45-2.08.3-.58.73-1.03,1.28-1.34.55-.31,1.18-.47,1.88-.47s1.33.16,1.88.47c.55.31.98.75,1.28,1.33.3.57.45,1.27.45,2.1v9.61h3.38v-10.52c0-1.21-.26-2.27-.78-3.2-.52-.92-1.25-1.65-2.17-2.17-.92-.52-1.99-.78-3.19-.78s-2.19.27-3.07.8c-.89.53-1.53,1.31-1.93,2.34l.39.42v-3.2h-3.26v16.31h3.41Z"/>
    <path class="st0" d="M337.54,227.39l3.29-4.97h-4.46l-2.2,4.97h3.38ZM339.3,246.51c.93-.35,1.74-.83,2.41-1.45.67-.61,1.17-1.3,1.49-2.07l-2.77-1.36c-.4.7-.95,1.28-1.64,1.72-.69.44-1.53.66-2.52.66s-1.82-.23-2.58-.69c-.75-.46-1.34-1.1-1.75-1.93-.41-.82-.57-1.79-.47-2.89-.08-1.18.07-2.2.45-3.03.38-.83.92-1.48,1.63-1.93.7-.45,1.51-.68,2.41-.68s1.69.23,2.37.68c.67.45,1.18,1.07,1.51,1.84.33.77.4,1.65.2,2.64l1.63-1.24h-11.06v2.71h12.99c.06-.24.1-.5.12-.78.02-.28.03-.55.03-.81,0-1.07-.18-2.07-.53-3.01-.35-.94-.86-1.78-1.52-2.52-.66-.73-1.48-1.31-2.44-1.73-.96-.42-2.06-.63-3.29-.63-1.53,0-2.89.37-4.1,1.1-1.21.73-2.16,1.73-2.88,3-.71,1.27-1.07,2.72-1.07,4.37s.35,3.06,1.05,4.36c.7,1.3,1.68,2.32,2.94,3.07,1.26.75,2.7,1.13,4.33,1.13,1.1,0,2.12-.18,3.06-.53M324.64,246.8c.34-.04.65-.08.93-.12v-2.92c-.18.02-.37.04-.57.06-.2.02-.38.03-.54.03-.64,0-1.17-.11-1.57-.32-.4-.21-.69-.51-.87-.9-.18-.39-.27-.87-.27-1.43v-7.75h3.71v-3.07h-3.71v-3.74h-3.41v1.27c0,.76-.21,1.37-.63,1.81-.42.44-1.01.66-1.78.66h-.45v3.07h2.86v7.9c0,1.75.47,3.11,1.42,4.07.94.96,2.27,1.45,3.98,1.45.26,0,.56-.02.9-.06M302.42,246.68v-9.61c0-.8.15-1.5.45-2.08.3-.58.73-1.03,1.28-1.34.55-.31,1.18-.47,1.88-.47s1.33.16,1.88.47c.55.31.98.75,1.28,1.33.3.57.45,1.27.45,2.1v9.61h3.38v-10.52c0-1.21-.26-2.27-.78-3.2-.52-.92-1.25-1.65-2.17-2.17-.92-.52-1.99-.78-3.2-.78s-2.19.27-3.07.8c-.88.53-1.53,1.31-1.93,2.34l.39.42v-3.2h-3.25v16.31h3.41ZM289,246.65c.75-.26,1.43-.63,2.02-1.11.59-.48,1.08-1.05,1.46-1.72l-.69-.09v2.95h3.26v-10.97c0-1.12-.28-2.11-.83-2.97-.55-.85-1.33-1.52-2.32-2.01-.99-.48-2.13-.72-3.42-.72-1.02,0-1.99.17-2.91.51-.91.34-1.71.82-2.4,1.43-.68.61-1.18,1.32-1.48,2.12l2.83,1.42c.32-.74.82-1.35,1.49-1.82.67-.47,1.46-.71,2.37-.71.98,0,1.77.26,2.37.77.59.51.89,1.17.89,1.97v4.19c0,.82-.19,1.57-.57,2.25-.38.67-.92,1.21-1.61,1.61-.69.4-1.5.6-2.43.6-.74,0-1.35-.2-1.82-.59-.47-.39-.71-.9-.71-1.52s.21-1.17.63-1.58c.42-.41,1.08-.7,1.99-.86l5-.87v-2.68l-5.67.93c-1.25.2-2.28.54-3.1,1.02-.82.48-1.43,1.08-1.82,1.78-.39.7-.59,1.5-.59,2.38,0,.95.23,1.76.69,2.46.46.69,1.11,1.24,1.94,1.63.83.39,1.8.59,2.91.59.92,0,1.76-.13,2.52-.39M274.57,246.21c1.14-.55,2.04-1.31,2.7-2.28.65-.96.98-2.07.98-3.32,0-1.51-.45-2.77-1.36-3.78-.9-1.01-2.25-1.79-4.04-2.34l-3.92-1.24c-.95-.28-1.65-.7-2.11-1.27-.46-.56-.69-1.21-.69-1.93,0-.62.16-1.17.47-1.64.31-.47.75-.83,1.31-1.08.56-.25,1.21-.38,1.96-.38,1.23,0,2.31.32,3.24.96.93.64,1.62,1.56,2.07,2.74l2.95-1.3c-.36-1.08-.94-2.04-1.73-2.86-.79-.82-1.74-1.47-2.85-1.94-1.1-.47-2.33-.71-3.68-.71s-2.66.27-3.75.81c-1.1.54-1.95,1.29-2.58,2.25-.62.95-.93,2.06-.93,3.33,0,1.45.44,2.71,1.33,3.78.88,1.07,2.17,1.87,3.86,2.4l4.22,1.33c.9.28,1.59.66,2.05,1.15.46.48.69,1.14.69,1.96,0,.6-.17,1.13-.5,1.6-.33.46-.8.82-1.4,1.07-.6.25-1.31.38-2.11.38-1.37,0-2.57-.37-3.62-1.11-1.05-.74-1.84-1.81-2.38-3.2l-3.01,1.27c.4,1.21,1.03,2.27,1.87,3.19.84.92,1.87,1.65,3.07,2.19,1.21.53,2.51.8,3.92.8,1.51,0,2.83-.28,3.98-.83"/>
  </g>
</svg>